<svg xmlns="http://www.w3.org/2000/svg" version="1.1" xmlns:xlink="http://www.w3.org/1999/xlink" xmlns:svgjs="http://svgjs.dev/svgjs" width="1000" height="1000" viewBox="0 0 1000 1000"><rect width="1000" height="1000" fill="#ffffff"></rect><g transform="matrix(0.7,0,0,0.7,149.57575757575756,465.910736023424)"><svg viewBox="0 0 396 39" data-background-color="#444444" preserveAspectRatio="xMidYMid meet" height="98" width="1000" xmlns="http://www.w3.org/2000/svg" xmlns:xlink="http://www.w3.org/1999/xlink"><g id="tight-bounds" transform="matrix(1,0,0,1,0.2400000000000091,-0.11980619407489712)"><svg viewBox="0 0 395.52 39.23961238814981" height="39.23961238814981" width="395.52"><g><svg viewBox="0 0 447.5005277816045 44.39661016798803" height="39.23961238814981" width="395.52"><g transform="matrix(1,0,0,1,0,6.135855674446972)"><svg viewBox="0 0 395.52 32.124898819094085" height="32.124898819094085" width="395.52"><g id="textblocktransform"><svg viewBox="0 0 395.52 32.124898819094085" height="32.124898819094085" width="395.52" id="textblock"><g><svg viewBox="0 0 395.52 32.124898819094085" height="32.124898819094085" width="395.52"><g transform="matrix(1,0,0,1,0,0)"><svg width="395.52" viewBox="4.349999904632568 -36.22999954223633 450.8899841308594 36.630001068115234" height="32.124898819094085" data-palette-color="#ffffff"><path d="M9.2-35.83L9.2-4.08 24.7-4.08 24.7 0 4.35 0 4.35-35.83 9.2-35.83ZM61.32-17.9L61.32-17.9Q61.32-13.88 60.05-10.51 58.77-7.15 56.45-4.73 54.12-2.3 50.86-0.96 47.6 0.38 43.65 0.38L43.65 0.38Q39.7 0.38 36.45-0.96 33.2-2.3 30.87-4.73 28.55-7.15 27.27-10.51 26-13.88 26-17.9L26-17.9Q26-21.93 27.27-25.29 28.55-28.65 30.87-31.09 33.2-33.52 36.45-34.88 39.7-36.23 43.65-36.23L43.65-36.23Q47.6-36.23 50.86-34.88 54.12-33.52 56.45-31.09 58.77-28.65 60.05-25.29 61.32-21.93 61.32-17.9ZM56.35-17.9L56.35-17.9Q56.35-21.2 55.45-23.83 54.55-26.45 52.9-28.26 51.25-30.08 48.9-31.05 46.55-32.02 43.65-32.02L43.65-32.02Q40.77-32.02 38.42-31.05 36.07-30.08 34.41-28.26 32.75-26.45 31.85-23.83 30.95-21.2 30.95-17.9L30.95-17.9Q30.95-14.6 31.85-11.99 32.75-9.38 34.41-7.56 36.07-5.75 38.42-4.79 40.77-3.83 43.65-3.83L43.65-3.83Q46.55-3.83 48.9-4.79 51.25-5.75 52.9-7.56 54.55-9.38 55.45-11.99 56.35-14.6 56.35-17.9ZM64.95-35.83L91.15-35.83 91.15-34.02Q91.15-33.18 90.62-32.43L90.62-32.43 70.35-3.95 90.8-3.95 90.8 0 64 0 64-1.9Q64-2.65 64.47-3.33L64.47-3.33 84.77-31.88 64.95-31.88 64.95-35.83ZM112.54-35.83L126.87 0 123.12 0Q122.47 0 122.07-0.33 121.67-0.65 121.47-1.15L121.47-1.15 118.12-9.8 102.04-9.8 98.69-1.15Q98.52-0.7 98.09-0.35 97.67 0 97.04 0L97.04 0 93.29 0 107.62-35.83 112.54-35.83ZM109.02-27.85L103.39-13.3 116.77-13.3 111.14-27.88Q110.59-29.23 110.07-31.25L110.07-31.25Q109.79-30.23 109.53-29.36 109.27-28.5 109.02-27.85L109.02-27.85ZM137.14-35.83L137.14 0 132.29 0 132.29-35.83 137.14-35.83ZM149.24-35.83L149.24-35.83Q149.89-35.83 150.2-35.66 150.51-35.5 150.91-35L150.91-35 171.66-8Q171.59-8.65 171.56-9.26 171.54-9.88 171.54-10.45L171.54-10.45 171.54-35.83 175.79-35.83 175.79 0 173.34 0Q172.76 0 172.38-0.2 171.99-0.4 171.61-0.88L171.61-0.88 150.89-27.85Q150.94-27.23 150.96-26.63 150.99-26.03 150.99-25.53L150.99-25.53 150.99 0 146.74 0 146.74-35.83 149.24-35.83ZM213.71-32.52L212.53-30.23Q212.31-29.85 212.06-29.66 211.81-29.48 211.41-29.48L211.41-29.48Q210.98-29.48 210.42-29.9 209.86-30.33 209-30.84 208.13-31.35 206.92-31.78 205.71-32.2 203.98-32.2L203.98-32.2Q202.36-32.2 201.11-31.76 199.86-31.33 199.02-30.58 198.18-29.83 197.76-28.81 197.33-27.8 197.33-26.63L197.33-26.63Q197.33-25.13 198.07-24.14 198.81-23.15 200.02-22.45 201.23-21.75 202.77-21.24 204.31-20.73 205.92-20.18 207.53-19.63 209.07-18.94 210.61-18.25 211.82-17.2 213.03-16.15 213.77-14.63 214.51-13.1 214.51-10.88L214.51-10.88Q214.51-8.53 213.71-6.46 212.91-4.4 211.37-2.88 209.83-1.35 207.6-0.48 205.36 0.4 202.51 0.4L202.51 0.4Q199.03 0.4 196.17-0.86 193.31-2.13 191.28-4.28L191.28-4.28 192.68-6.58Q192.88-6.85 193.17-7.04 193.46-7.23 193.81-7.23L193.81-7.23Q194.33-7.23 195.01-6.66 195.68-6.1 196.7-5.43 197.71-4.75 199.15-4.19 200.58-3.63 202.66-3.63L202.66-3.63Q204.38-3.63 205.73-4.1 207.08-4.58 208.02-5.44 208.96-6.3 209.46-7.5 209.96-8.7 209.96-10.18L209.96-10.18Q209.96-11.8 209.22-12.84 208.48-13.88 207.28-14.58 206.08-15.28 204.55-15.76 203.01-16.25 201.4-16.76 199.78-17.28 198.25-17.95 196.71-18.63 195.51-19.7 194.31-20.78 193.57-22.39 192.83-24 192.83-26.38L192.83-26.38Q192.83-28.28 193.57-30.05 194.31-31.83 195.71-33.2 197.11-34.58 199.17-35.4 201.23-36.23 203.91-36.23L203.91-36.23Q206.91-36.23 209.38-35.27 211.86-34.33 213.71-32.52L213.71-32.52ZM253.96-17.9L253.96-17.9Q253.96-13.88 252.68-10.51 251.41-7.15 249.08-4.73 246.76-2.3 243.49-0.96 240.23 0.38 236.28 0.38L236.28 0.38Q232.33 0.38 229.08-0.96 225.83-2.3 223.51-4.73 221.18-7.15 219.91-10.51 218.63-13.88 218.63-17.9L218.63-17.9Q218.63-21.93 219.91-25.29 221.18-28.65 223.51-31.09 225.83-33.52 229.08-34.88 232.33-36.23 236.28-36.23L236.28-36.23Q240.23-36.23 243.49-34.88 246.76-33.52 249.08-31.09 251.41-28.65 252.68-25.29 253.96-21.93 253.96-17.9ZM248.98-17.9L248.98-17.9Q248.98-21.2 248.08-23.83 247.18-26.45 245.53-28.26 243.88-30.08 241.53-31.05 239.18-32.02 236.28-32.02L236.28-32.02Q233.41-32.02 231.06-31.05 228.71-30.08 227.04-28.26 225.38-26.45 224.48-23.83 223.58-21.2 223.58-17.9L223.58-17.9Q223.58-14.6 224.48-11.99 225.38-9.38 227.04-7.56 228.71-5.75 231.06-4.79 233.41-3.83 236.28-3.83L236.28-3.83Q239.18-3.83 241.53-4.79 243.88-5.75 245.53-7.56 247.18-9.38 248.08-11.99 248.98-14.6 248.98-17.9ZM260.58-35.83L282.65-35.83 282.65-31.88 265.45-31.88 265.45-19.35 280.15-19.35 280.15-15.4 265.45-15.4 265.45 0 260.58 0 260.58-35.83ZM285.23-35.83L313.28-35.83 313.28-31.75 301.7-31.75 301.7 0 296.85 0 296.85-31.75 285.23-31.75 285.23-35.83ZM325.55 0L314.37-35.83 318.4-35.83Q319.05-35.83 319.47-35.5 319.9-35.18 320.05-34.68L320.05-34.68 327.45-9.78Q327.65-9.1 327.81-8.33 327.97-7.55 328.12-6.7L328.12-6.7Q328.3-7.55 328.47-8.34 328.65-9.13 328.87-9.78L328.87-9.78 337.3-34.68Q337.45-35.1 337.89-35.46 338.32-35.83 338.95-35.83L338.95-35.83 340.35-35.83Q341-35.83 341.41-35.5 341.82-35.18 342-34.68L342-34.68 350.37-9.78Q350.82-8.47 351.17-6.8L351.17-6.8Q351.32-7.63 351.45-8.38 351.57-9.13 351.77-9.78L351.77-9.78 359.2-34.68Q359.32-35.13 359.76-35.48 360.2-35.83 360.82-35.83L360.82-35.83 364.6-35.83 353.42 0 349.07 0 340-27.33Q339.72-28.1 339.5-29.13L339.5-29.13Q339.37-28.63 339.26-28.16 339.15-27.7 339.02-27.33L339.02-27.33 329.9 0 325.55 0ZM382.12-35.83L396.44 0 392.69 0Q392.05 0 391.64-0.33 391.25-0.65 391.05-1.15L391.05-1.15 387.69-9.8 371.62-9.8 368.27-1.15Q368.1-0.7 367.67-0.35 367.25 0 366.62 0L366.62 0 362.87 0 377.19-35.83 382.12-35.83ZM378.6-27.85L372.97-13.3 386.35-13.3 380.72-27.88Q380.17-29.23 379.64-31.25L379.64-31.25Q379.37-30.23 379.11-29.36 378.85-28.5 378.6-27.85L378.6-27.85ZM409.97-14.95L406.29-14.95 406.29 0 401.47 0 401.47-35.83 411.59-35.83Q414.99-35.83 417.47-35.14 419.94-34.45 421.56-33.15 423.17-31.85 423.94-30.01 424.72-28.18 424.72-25.9L424.72-25.9Q424.72-24 424.12-22.35 423.52-20.7 422.38-19.39 421.24-18.07 419.61-17.15 417.97-16.23 415.89-15.75L415.89-15.75Q416.79-15.23 417.49-14.23L417.49-14.23 427.94 0 423.64 0Q422.32 0 421.69-1.03L421.69-1.03 412.39-13.83Q411.97-14.43 411.47-14.69 410.97-14.95 409.97-14.95L409.97-14.95ZM406.29-32L406.29-18.48 411.37-18.48Q413.49-18.48 415.11-18.99 416.72-19.5 417.81-20.44 418.89-21.38 419.44-22.68 419.99-23.98 419.99-25.55L419.99-25.55Q419.99-28.75 417.88-30.38 415.77-32 411.59-32L411.59-32 406.29-32ZM433.17-35.83L455.24-35.83 455.24-31.88 438.04-31.88 438.04-19.98 451.96-19.98 451.96-16.18 438.04-16.18 438.04-3.95 455.24-3.95 455.24 0 433.17 0 433.17-35.83Z" opacity="1" transform="matrix(1,0,0,1,0,0)" fill="#000000" class="wordmark-text-0" data-fill-palette-color="primary" id="text-0"></path></svg></g></svg></g></svg></g></svg></g><g transform="matrix(1,0,0,1,403.10391761361643,0)"><svg viewBox="0 0 44.39661016798803 44.39661016798803" height="44.39661016798803" width="44.39661016798803"><g data-palette-color="#cc147f"><rect width="12.13507344591673" height="44.39661016798803" fill="#000000" stroke="transparent" data-fill-palette-color="accent" x="0" fill-opacity="1"></rect><rect width="12.13507344591673" height="44.39661016798803" fill="#000000" stroke="transparent" data-fill-palette-color="accent" x="14.798870055996012" fill-opacity="0.75"></rect><rect width="12.13507344591673" height="44.39661016798803" fill="#000000" stroke="transparent" data-fill-palette-color="accent" x="29.597740111992024" fill-opacity="0.5"></rect></g></svg></g></svg></g><defs></defs></svg><rect width="395.52" height="39.23961238814981" fill="none" stroke="none" visibility="hidden"></rect></g></svg></g></svg>